<mxfile host="app.diagrams.net" modified="2024-05-05T18:43:40.799Z" agent="Mozilla/5.0 (Windows NT 10.0; Win64; x64) AppleWebKit/537.36 (KHTML, like Gecko) Chrome/124.0.0.0 Safari/537.36" etag="TO5g7Pflm-RxRZRegyTl" version="24.3.1" type="device">
  <diagram id="bc47vRQSer-DN1HRI0ml" name="Page-1">
    <mxGraphModel dx="882" dy="578" grid="1" gridSize="10" guides="1" tooltips="1" connect="1" arrows="1" fold="1" page="1" pageScale="1" pageWidth="850" pageHeight="1100" math="0" shadow="0">
      <root>
        <mxCell id="0" />
        <mxCell id="1" parent="0" />
        <mxCell id="2DAcRyDnYsfqnFuds7LR-6" style="edgeStyle=orthogonalEdgeStyle;rounded=0;orthogonalLoop=1;jettySize=auto;html=1;exitX=1;exitY=0.5;exitDx=0;exitDy=0;entryX=0;entryY=0.5;entryDx=0;entryDy=0;" edge="1" parent="1" source="2DAcRyDnYsfqnFuds7LR-1" target="2DAcRyDnYsfqnFuds7LR-3">
          <mxGeometry relative="1" as="geometry" />
        </mxCell>
        <mxCell id="2DAcRyDnYsfqnFuds7LR-1" value="Game service" style="rounded=1;whiteSpace=wrap;html=1;" vertex="1" parent="1">
          <mxGeometry x="80" y="160" width="120" height="60" as="geometry" />
        </mxCell>
        <mxCell id="2DAcRyDnYsfqnFuds7LR-5" style="edgeStyle=orthogonalEdgeStyle;rounded=0;orthogonalLoop=1;jettySize=auto;html=1;exitX=0;exitY=0.5;exitDx=0;exitDy=0;" edge="1" parent="1" source="2DAcRyDnYsfqnFuds7LR-2" target="2DAcRyDnYsfqnFuds7LR-1">
          <mxGeometry relative="1" as="geometry" />
        </mxCell>
        <mxCell id="2DAcRyDnYsfqnFuds7LR-7" style="edgeStyle=orthogonalEdgeStyle;rounded=0;orthogonalLoop=1;jettySize=auto;html=1;exitX=1;exitY=0.5;exitDx=0;exitDy=0;entryX=0.5;entryY=0;entryDx=0;entryDy=0;" edge="1" parent="1" source="2DAcRyDnYsfqnFuds7LR-2" target="2DAcRyDnYsfqnFuds7LR-3">
          <mxGeometry relative="1" as="geometry" />
        </mxCell>
        <mxCell id="2DAcRyDnYsfqnFuds7LR-2" value="User" style="rounded=1;whiteSpace=wrap;html=1;" vertex="1" parent="1">
          <mxGeometry x="240" y="40" width="120" height="60" as="geometry" />
        </mxCell>
        <mxCell id="2DAcRyDnYsfqnFuds7LR-8" style="edgeStyle=orthogonalEdgeStyle;rounded=0;orthogonalLoop=1;jettySize=auto;html=1;exitX=0.5;exitY=1;exitDx=0;exitDy=0;" edge="1" parent="1" source="2DAcRyDnYsfqnFuds7LR-3" target="2DAcRyDnYsfqnFuds7LR-4">
          <mxGeometry relative="1" as="geometry" />
        </mxCell>
        <mxCell id="2DAcRyDnYsfqnFuds7LR-3" value="Leaderboard service" style="rounded=1;whiteSpace=wrap;html=1;" vertex="1" parent="1">
          <mxGeometry x="400" y="160" width="120" height="60" as="geometry" />
        </mxCell>
        <mxCell id="2DAcRyDnYsfqnFuds7LR-4" value="Leaderboard store" style="rounded=1;whiteSpace=wrap;html=1;" vertex="1" parent="1">
          <mxGeometry x="400" y="320" width="120" height="60" as="geometry" />
        </mxCell>
        <mxCell id="2DAcRyDnYsfqnFuds7LR-9" value="Wins a game" style="text;html=1;align=center;verticalAlign=middle;whiteSpace=wrap;rounded=0;" vertex="1" parent="1">
          <mxGeometry x="160" y="120" width="80" height="40" as="geometry" />
        </mxCell>
        <mxCell id="2DAcRyDnYsfqnFuds7LR-10" value="Get a leaderboard, get player rank" style="text;html=1;align=center;verticalAlign=middle;whiteSpace=wrap;rounded=0;" vertex="1" parent="1">
          <mxGeometry x="480" y="120" width="120" height="40" as="geometry" />
        </mxCell>
        <mxCell id="2DAcRyDnYsfqnFuds7LR-11" value="Update score" style="text;html=1;align=center;verticalAlign=middle;whiteSpace=wrap;rounded=0;" vertex="1" parent="1">
          <mxGeometry x="240" y="200" width="80" height="40" as="geometry" />
        </mxCell>
        <mxCell id="2DAcRyDnYsfqnFuds7LR-12" value="Update score" style="text;html=1;align=center;verticalAlign=middle;whiteSpace=wrap;rounded=0;" vertex="1" parent="1">
          <mxGeometry x="480" y="240" width="80" height="40" as="geometry" />
        </mxCell>
      </root>
    </mxGraphModel>
  </diagram>
</mxfile>
